<svg xmlns="http://www.w3.org/2000/svg" width="170.667" height="170.667" viewBox="0 0 128 128" xmlns:v="https://vecta.io/nano"><path d="M64.071 1.851c-34.257 0-62.127 27.87-62.127 62.127 0 22.757 12.429 43.675 32.436 54.588 3.988 2.178 8.215 3.912 12.561 5.154 5.524 1.583 11.288 2.385 17.13 2.385a62.58 62.58 0 0 0 17-2.353c4.381-1.252 8.612-2.98 12.574-5.135 20.079-10.881 32.553-31.818 32.553-54.638 0-34.257-27.87-62.127-62.127-62.127zM45.772 119.966a58.32 58.32 0 0 1-8.946-3.774c.256-4.009.879-7.426 1.781-9.813 4.238 1.484 7.165 5.524 7.165 10.06v3.527zm3.227.941v-4.468a13.99 13.99 0 0 0-8.806-12.941c1.95-2.697 3.666-4.803 6.327-6.574l5.306 13.592c.188.482.597.845 1.098.975.134.034.27.052.405.052.371 0 .736-.129 1.028-.371l2.908-2.404-.203 8.177a1.61 1.61 0 0 0 .537 1.243l5.189 4.638c-4.675-.097-9.314-.74-13.789-1.919zM62.362 84.53c-.259-.541-.8-.894-1.399-.915-.05-.002-5.066-.208-9.31-2.652-2.212-1.275-4.264-2.644-6.952-6.513-.735-1.057-1.949-.919-2.835-.818-.86.098-1.831.209-2.704-.347-1.871-1.179-2.818-2.749-2.412-4.002.392-1.209 2.007-1.897 4.093-1.767.7.051 1.296-.346 1.563-.935.019-.039.017-.083.033-.123.052-.144.108-.287.119-.448.001-.015-.006-.028-.006-.042.001-.021.014-.041.014-.062.01-.106.034-.295.066-.558.227-1.876.831-6.861.831-12.44 0-4.794 1.748-8.822 5.055-11.65 1.639-1.398 4.055-.852 7.86.158 2.255.598 4.811 1.276 7.432 1.332 5.331.11 7.092-.463 9.131-1.131 1.168-.383 2.374-.778 4.552-1.115 4.624-.715 6.266 3.205 7.678 10.688.209 1.109.222 3.456.235 5.725.022 3.931.092 6.343.504 7.823-.006.076-.035.144-.03.222.04.623.436 1.134.971 1.367.061.05.112.114.179.157a2 2 0 0 0 1.94.124c.027-.012.05-.033.077-.046 1.164.232 1.997.86 2.308 1.818.442 1.366-.174 3.413-2.553 4.911-.868.551-1.84.44-2.696.343-.89-.099-2.1-.238-2.837.819-2.819 4.057-4.326 5.37-6.279 6.493-4.251 2.447-9.924 2.669-9.981 2.67-.6.02-1.141.373-1.401.915-.152.316-.507 1.057-.168 5.983.049.711.559 1.306 1.254 1.462.872.198 3.623.954 5.68 1.546l-8.304 5.583-8.397-5.591 5.607-1.537c.695-.158 1.205-.752 1.254-1.463.339-4.926-.017-5.667-.169-5.983zM39.421 23.479l10.473 2.337a1.61 1.61 0 0 0 1.515-.457c.391-.407.541-.988.396-1.533l-1.589-5.98c4.674.619 15.526 2.547 23.261 7.735.853.571 1.7.339 2.165-.035.59-.474 1.118-.898.199-3.98 3.07 1.663 6.871 4.131 8.354 6.58 5.042 8.342 5.524 26.364 5.192 30.216-.061.708-.34 1.837-.674 2.876-.065-1.433-.074-3.104-.081-4.342-.014-2.524-.028-4.909-.29-6.306-.901-4.777-2.528-13.405-9.772-13.405-.496 0-1.02.041-1.571.126-2.439.377-3.833.834-5.064 1.238-1.83.6-3.283 1.079-8.056.971-2.235-.047-4.491-.646-6.673-1.224-3.825-1.014-7.776-2.062-10.785.507-4.047 3.46-6.186 8.337-6.186 14.104a91.58 91.58 0 0 1-.364 7.866 19.29 19.29 0 0 1-.786-2.558c-.004-.019-.008-.038-.013-.056-.3-1.287-1.229-11.682-1.98-20.68l.02.025a1.61 1.61 0 0 0 1.83.519c.658-.244 1.084-.884 1.053-1.585l-.574-12.959zm37.274 71.024c.74.285 1.426.578 2.063.88l-4.637 11.879-7.356-6.084 9.93-6.676zm-15.325 6.682l-7.348 6.078-4.655-11.925c.61-.286 1.264-.563 1.967-.834l10.036 6.682zm2.641 18.404l-3.703-3.31.254-10.237 3.51-2.903 3.387 2.801.257 10.339-3.704 3.31zm15.003-3.15v4.495c-4.507 1.171-9.142 1.799-13.78 1.891l5.189-4.637a1.61 1.61 0 0 0 .537-1.243l-.206-8.279 3.03 2.506c.292.242.657.371 1.028.371.136 0 .271-.018.405-.052.501-.13.91-.493 1.098-.975l5.281-13.529c2.602 1.758 4.299 3.847 6.223 6.511a13.99 13.99 0 0 0-8.806 12.941zm3.227 3.56v-3.56c0-4.538 2.931-8.58 7.172-10.063.913 2.391 1.532 5.791 1.794 9.859a58.78 58.78 0 0 1-8.967 3.764zm12.067-5.512c-.381-4.227-1.278-9.153-3.362-12.17-3.559-4.983-6.45-8.45-13.901-11.134-.036-.013-.074-.006-.11-.016-.122-.035-.243-.049-.37-.054-.081-.003-.159-.009-.239 0-.127.013-.246.05-.37.093-.033.012-.069.011-.102.026-.032-.014-.054-.041-.087-.053-.9-.324-4.959-1.469-7.177-2.053-.042-.87-.067-1.739-.063-2.392 2.178-.225 6.466-.917 10.07-2.992 2.225-1.28 4.022-2.79 6.953-6.926l.188.023c1.11.129 2.963.338 4.788-.823 3.325-2.094 4.891-5.563 3.898-8.632-.531-1.64-1.7-2.848-3.27-3.529 1.022-2.319 1.445-5.171 1.448-5.214.365-4.23-.121-23.023-5.646-32.163-3.146-5.2-12.91-9.406-13.325-9.582a1.62 1.62 0 0 0-1.757.327c-.466.453-.615 1.141-.378 1.746.266.68.541 1.426.786 2.135-10.453-5.635-23.507-6.686-24.11-6.732a1.61 1.61 0 0 0-1.681 2.023l1.513 5.693-9.936-2.217c-.492-.108-1.003.015-1.388.339s-.597.806-.575 1.308l.444 10.031-.233-.299c-.439-.561-1.191-.767-1.858-.509s-1.079.923-1.021 1.633l2.471 26.411a1.58 1.58 0 0 0 .053.237 20.8 20.8 0 0 0 2.169 5.527c-2.193.534-3.837 1.852-4.449 3.741-.875 2.703.601 5.736 3.757 7.723 1.832 1.164 3.688.952 4.795.826l.191-.023c2.895 4.019 5.259 5.583 7.621 6.944 3.524 2.029 7.377 2.726 9.399 2.963.005.654-.02 1.529-.062 2.404-2.235.591-6.257 1.744-7.112 2.053-.033.012-.055.039-.086.053-.041-.018-.087-.018-.129-.033-.117-.041-.231-.076-.351-.089-.076-.008-.15-.002-.227.001-.137.005-.267.019-.397.059-.03.009-.06.002-.089.013-7.472 2.691-10.362 6.155-13.935 11.159-2.07 3.022-2.957 7.897-3.329 12.088-17.663-10.648-28.55-29.734-28.55-50.453 0-32.477 26.423-58.9 58.9-58.9s58.9 26.423 58.9 58.9c0 20.781-10.93 39.887-28.663 50.509z"/></svg>